<svg width="158" height="158" viewBox="0 0 158 158" fill="none" xmlns="http://www.w3.org/2000/svg">
<path fill-rule="evenodd" clip-rule="evenodd" d="M34.2511 103.299C53.1314 120.701 105.698 120.502 124.578 103.299C125.175 102.802 125.87 102.404 126.566 102.901C127.261 103.299 127.46 104.194 126.963 104.89C122.194 112.348 115.039 118.115 107.189 121.993C98.6428 126.17 89.004 128.258 79.4645 128.258C69.9249 128.258 60.2861 126.17 51.7403 121.993C43.7907 118.115 36.7354 112.348 31.9656 104.89C31.3694 104.194 31.5682 103.199 32.1644 102.802C32.86 102.404 33.7543 102.603 34.2511 103.299ZM25.3079 105.188C25.4072 105.984 26.2022 106.481 26.9971 106.381C27.6927 106.282 28.289 105.487 28.1896 104.79C27.9908 103.498 28.3883 102.205 29.2826 101.31C30.177 100.415 31.4688 100.017 32.7606 100.216C33.5556 100.316 34.2511 99.8185 34.4499 99.023C34.4499 98.1281 33.953 97.432 33.1581 97.3326C30.9719 96.9348 28.7858 97.7303 27.1959 99.2219C25.7053 100.813 24.9104 103.001 25.3079 105.188ZM129.845 104.79C129.746 105.586 130.242 106.282 131.037 106.481C131.832 106.58 132.528 106.083 132.727 105.288C133.025 103.1 132.329 100.912 130.739 99.3213C129.149 97.7303 126.963 97.0343 124.777 97.3326C123.982 97.432 123.485 98.2275 123.585 99.023C123.684 99.8185 124.479 100.316 125.274 100.216C126.566 100.017 127.858 100.415 128.752 101.31C129.547 102.205 130.044 103.498 129.845 104.79Z" fill="url(#paint0_linear_1_1256)"/>
<defs>
<linearGradient id="paint0_linear_1_1256" x1="132.794" y1="97.2307" x2="130.485" y2="134.74" gradientUnits="userSpaceOnUse">
<stop stop-color="#47BFDF"/>
<stop offset="1" stop-color="#4A91FF"/>
</linearGradient>
</defs>
</svg>
